<?xml version="1.0" encoding="UTF-8" standalone="no"?>


<svg version="1.1" id="svg492" width="812" height="182" viewBox="0 0 812 182" xmlns="http://www.w3.org/2000/svg" xmlns:svg="http://www.w3.org/2000/svg">
  <defs id="defs496"></defs>
  <g id="g498">
    <g id="g26" transform="scale(0.81200081,0.82732633)" style="fill:#000000">
&#x9;<g id="g22" style="fill:#000000">
&#x9;&#x9;<polygon points="811.044,120.477 836.721,120.477 836.721,27.483 872.195,27.483 872.195,3.799 775.563,3.799 775.563,27.483 811.044,27.483 " id="polygon2" style="fill:#000000"></polygon>

&#x9;&#x9;<polygon points="379.348,75.647 324.693,3.799 301.039,3.799 301.039,120.477 326.361,120.477 326.361,46.309 382.85,120.477 404.684,120.477 404.684,3.799 379.348,3.799 " id="polygon4" style="fill:#000000"></polygon>

&#x9;&#x9;<g id="g20" style="fill:#000000">
&#x9;&#x9;&#x9;<path d="m 599.083,78.955 h 33.784 c -1.573,8.86 -10.275,21.913 -32.022,21.913 -21.319,0 -38.477,-16.954 -38.477,-38.606 0,-22.074 16.693,-38.738 38.883,-38.738 22.349,0 32.682,17.665 33.117,18.419 L 654.266,29.615 C 642.591,10.819 623.273,0.014 601.25,0.014 c -34.858,0 -63.226,27.802 -63.226,61.986 0,34.894 27.403,62.247 62.392,62.247 32.45,0 57.859,-23.306 57.859,-54.821 v -13.56 h -59.193 v 23.089 z" id="path6" style="fill:#000000"></path>

&#x9;&#x9;&#x9;<path d="m 490.1,53.531 c -16.824,-6.309 -33.43,-8.47 -33.43,-19.71 0,-6.526 6.787,-11.414 21.146,-11.414 13.814,0 29.456,6.294 39.919,11.82 V 9.354 C 503.616,3.48 490.114,0 476.169,0 c -28.186,0 -47.258,14.271 -47.258,34.981 0,22.61 19.282,30.602 32.704,35.634 16.809,6.279 32.937,8.586 32.937,19.825 0,6.512 -7.752,11.399 -22.095,11.414 -13.408,0 -29.688,-6.323 -40.145,-11.834 v 24.974 c 14.619,6.251 27.969,9.253 41.761,9.253 28.484,0.016 48.208,-14.271 48.208,-34.98 C 522.282,66.655 503.529,58.578 490.1,53.531" id="path8" style="fill:#000000"></path>

&#x9;&#x9;&#x9;<path d="m 216.008,0 c -33.93,0 -61.522,27.584 -61.522,61.522 0,34.532 27.28,62.595 60.811,62.595 35.032,0 62.479,-27.426 62.479,-62.465 C 277.776,27.671 250.061,0 216.008,0 m -0.291,99.824 c -20.543,0 -36.656,-16.592 -36.656,-37.766 0,-21.087 16.337,-37.606 37.2,-37.606 20.645,0 36.787,16.417 36.787,37.331 0,21.682 -16.026,38.041 -37.331,38.041" id="path10" style="fill:#000000"></path>

&#x9;&#x9;&#x9;<polygon points="25.663,97.142 25.663,3.814 0,3.814 0,120.462 83.631,120.462 83.631,97.142 " id="polygon12" style="fill:#000000"></polygon>

&#x9;&#x9;&#x9;<path d="M 971.374,97.634 H 916.865 V 73.139 h 49.948 c -0.341,-4.09 -0.565,-8.237 -0.565,-12.429 0,-3.524 0.159,-6.976 0.449,-10.399 H 916.865 V 26.643 h 53.914 c 2.154,-7.919 5.048,-15.577 8.564,-22.828 V 3.799 h -87.96 v 116.677 h 88.765 c -3.582,-7.25 -6.533,-14.894 -8.774,-22.842" id="path14" style="fill:#000000"></path>

&#x9;&#x9;&#x9;<rect x="104.646" y="3.8139999" width="25.663" height="116.662" id="rect16" style="fill:#000000"></rect>

&#x9;&#x9;&#x9;<path d="m 713.091,3.799 -49.637,116.663 h 26.171 l 9.281,-22.958 h 52.066 l 9.282,22.958 h 26.852 L 737.448,3.829 Z m -5.483,72.168 17.317,-42.16 17.439,42.16 z" id="path18" style="fill:#000000"></path>

&#x9;&#x9;</g>

&#x9;</g>

&#x9;<path fill-rule="evenodd" clip-rule="evenodd" d="m 991.8,7.344 c 1.11,0 1.909,0.117 2.415,0.351 0.906,0.389 1.358,1.081 1.368,2.22 0,0.789 -0.272,1.354 -0.871,1.724 -0.298,0.195 -0.726,0.36 -1.267,0.419 0.672,0.117 1.169,0.409 1.5,0.886 0.326,0.467 0.487,0.896 0.487,1.354 v 0.662 0.663 c 0.029,0.224 0.038,0.37 0.121,0.448 l 0.049,0.098 h -1.466 c 0,0 0,-0.02 -0.02,-0.068 0,-0.029 0,-0.029 -0.033,-0.107 l -0.02,-0.283 V 15 c 0,-1.003 -0.288,-1.675 -0.838,-2.016 -0.316,-0.195 -0.906,-0.253 -1.724,-0.292 h -1.237 v 3.477 h -1.533 V 7.344 h 3.069 m 1.655,1.403 C 993.09,8.543 992.462,8.406 991.6,8.406 h -1.334 v 3.224 h 1.427 c 0.628,0 1.125,-0.078 1.446,-0.214 0.609,-0.233 0.916,-0.691 0.926,-1.393 -0.001,-0.594 -0.201,-1.043 -0.61,-1.276 m 4.202,8.726 c -1.587,1.597 -3.472,2.376 -5.706,2.376 -2.226,0 -4.101,-0.779 -5.674,-2.376 -1.548,-1.539 -2.313,-3.438 -2.313,-5.697 0,-2.181 0.765,-4.061 2.322,-5.639 1.563,-1.568 3.438,-2.318 5.664,-2.337 2.225,0 4.119,0.75 5.706,2.337 1.544,1.559 2.333,3.428 2.343,5.639 10e-4,2.24 -0.769,4.099 -2.342,5.697 M 987.086,6.926 c -1.339,1.314 -1.996,2.97 -1.996,4.85 0,1.928 0.657,3.574 1.996,4.928 1.314,1.383 2.961,2.036 4.865,2.036 1.933,0 3.549,-0.652 4.908,-2.036 1.344,-1.354 1.981,-3 1.981,-4.928 0,-1.879 -0.638,-3.496 -1.981,-4.85 -1.359,-1.412 -2.976,-2.045 -4.908,-2.045 -1.885,-0.001 -3.502,0.633 -4.865,2.045" id="path24" style="fill:#000000"></path>

</g>
    <text xml:space="preserve" style="font-weight:bold;font-size:53.3333px;font-family:Gotham;-inkscape-font-specification:&#39;Gotham Bold&#39;;fill:#000080;font-style:normal;font-stretch:normal;font-variant:normal" x="138.8978" y="146.7103" id="text806"><tspan id="tspan804" x="138.8978" y="146.7103"></tspan></text>
    <g aria-label="STUDIOS" transform="scale(0.98196919,1.0183619)" id="text810" style="font-weight:500;font-size:66.5158px;font-family:Gotham;-inkscape-font-specification:&#39;Gotham Medium&#39;;letter-spacing:39px;stroke-width:1.24716">
      <path d="m 149.19059,143.53153 q 0,-2.32806 1.99548,-3.92443 1.99547,-1.6629 5.58733,-1.6629 3.19275,0 6.319,1.2638 3.12624,1.19729 6.319,3.52534 l 4.39004,-6.18597 q -3.59185,-2.86018 -7.71583,-4.32353 -4.05747,-1.52986 -9.17918,-1.52986 -3.45882,0 -6.38552,0.99774 -2.92669,0.93122 -5.0552,2.72714 -2.06199,1.79593 -3.25927,4.32353 -1.19729,2.46108 -1.19729,5.52081 0,3.25928 0.99774,5.52081 1.06425,2.26154 2.99321,3.85792 1.99547,1.59638 4.85565,2.66063 2.9267,1.06425 6.65158,1.92896 3.25928,0.79819 5.25475,1.52986 2.06199,0.73168 3.19276,1.59638 1.19728,0.79819 1.59638,1.79593 0.46561,0.99774 0.46561,2.26154 0,2.72714 -2.26154,4.32352 -2.19502,1.59638 -5.98642,1.59638 -4.39004,0 -7.84886,-1.52986 -3.45883,-1.59638 -6.85113,-4.52308 l -4.92217,5.85339 q 4.19049,3.79141 9.11266,5.65385 4.92217,1.79592 10.30995,1.79592 3.65837,0 6.7181,-0.93122 3.05973,-0.93122 5.25475,-2.72714 2.19502,-1.79593 3.3923,-4.39005 1.2638,-2.59411 1.2638,-5.9199 0,-2.9267 -0.99773,-5.0552 -0.93123,-2.19503 -2.79367,-3.79141 -1.86244,-1.66289 -4.72262,-2.79366 -2.79366,-1.13077 -6.45203,-2.06199 -3.32579,-0.79819 -5.52081,-1.52986 -2.12851,-0.73168 -3.39231,-1.59638 -1.19728,-0.86471 -1.66289,-1.86244 -0.46562,-0.99774 -0.46562,-2.39457 z" id="path862"></path>
      <path d="m 242.53401,138.94194 h 14.76651 v -7.5828 h -37.78098 v 7.5828 h 14.76651 v 38.97826 h 8.24796 z" id="path864"></path>
      <path d="m 344.05891,131.35914 h -8.18144 V 158.165 q 0,6.45204 -3.12625,9.71131 -3.12624,3.25927 -8.58053,3.25927 -5.52082,0 -8.64706,-3.3923 -3.12624,-3.39231 -3.12624,-9.91086 v -26.47328 h -8.18144 V 158.165 q 0,5.0552 1.39683,8.91312 1.39683,3.7914 3.99094,6.38552 2.59412,2.59411 6.25249,3.92443 3.65837,1.2638 8.18144,1.2638 4.58959,0 8.24796,-1.2638 3.72489,-1.33032 6.319,-3.92443 2.59412,-2.66063 3.99095,-6.58507 1.46335,-3.92443 1.46335,-9.11266 z" id="path866"></path>
      <path d="m 436.40458,154.57315 q 0,-4.92217 -1.79592,-9.17918 -1.79593,-4.25701 -5.12172,-7.38325 -3.25927,-3.12625 -7.84886,-4.85566 -4.52308,-1.79592 -9.97737,-1.79592 h -17.36063 v 46.56106 h 17.36063 q 5.45429,0 9.97737,-1.79593 4.58959,-1.79593 7.84886,-4.92217 3.32579,-3.12624 5.12172,-7.38325 1.79592,-4.32353 1.79592,-9.2457 z m -8.58053,0.13303 q 0,3.45882 -1.19729,6.38552 -1.13077,2.86018 -3.25927,4.98868 -2.06199,2.06199 -5.0552,3.25928 -2.99322,1.13077 -6.65158,1.13077 h -9.17918 v -31.66152 h 9.17918 q 3.65836,0 6.65158,1.19728 2.99321,1.19728 5.0552,3.32579 2.1285,2.12851 3.25927,5.0552 1.19729,2.86018 1.19729,6.319 z" id="path868"></path>
      <path d="m 485.78101,131.35914 v 46.56106 h 8.18145 v -46.56106 z" id="path870"></path>
      <path d="m 592.02846,154.57315 q 0,-4.92217 -1.79593,-9.31221 -1.79593,-4.39004 -4.98868,-7.64932 -3.19276,-3.25927 -7.64932,-5.12172 -4.45656,-1.92895 -9.84434,-1.92895 -5.38778,0 -9.84434,1.92895 -4.45656,1.92896 -7.71583,5.25475 -3.25928,3.25928 -5.0552,7.64932 -1.79593,4.39004 -1.79593,9.31221 0,4.92217 1.79593,9.31221 1.79592,4.39005 4.98868,7.64932 3.19276,3.25928 7.64932,5.18823 4.45656,1.86245 9.84434,1.86245 5.38778,0 9.84434,-1.92896 4.45656,-1.92896 7.71583,-5.18823 3.25927,-3.32579 5.0552,-7.71584 1.79593,-4.39004 1.79593,-9.31221 z m -8.58054,0.13303 q 0,3.39231 -1.19729,6.45203 -1.13076,2.99322 -3.19275,5.25475 -2.06199,2.19502 -4.98869,3.52534 -2.86018,1.2638 -6.319,1.2638 -3.45882,0 -6.38552,-1.33032 -2.92669,-1.33031 -5.0552,-3.59185 -2.06199,-2.26154 -3.25927,-5.25475 -1.13077,-3.05972 -1.13077,-6.45203 0,-3.39231 1.13077,-6.38552 1.19728,-3.05972 3.25927,-5.25474 2.06199,-2.26154 4.92217,-3.52534 2.9267,-1.33032 6.38552,-1.33032 3.45882,0 6.38552,1.33032 2.92669,1.33031 4.98868,3.59185 2.12851,2.26154 3.25927,5.32127 1.19729,2.99321 1.19729,6.38551 z" id="path872"></path>
      <path d="m 647.52446,143.53153 q 0,-2.32806 1.99547,-3.92443 1.99548,-1.6629 5.58733,-1.6629 3.19276,0 6.319,1.2638 3.12624,1.19729 6.319,3.52534 l 4.39004,-6.18597 q -3.59185,-2.86018 -7.71583,-4.32353 -4.05746,-1.52986 -9.17918,-1.52986 -3.45882,0 -6.38552,0.99774 -2.92669,0.93122 -5.0552,2.72714 -2.06199,1.79593 -3.25927,4.32353 -1.19729,2.46108 -1.19729,5.52081 0,3.25928 0.99774,5.52081 1.06425,2.26154 2.99321,3.85792 1.99548,1.59638 4.85566,2.66063 2.92669,1.06425 6.65158,1.92896 3.25927,0.79819 5.25474,1.52986 2.06199,0.73168 3.19276,1.59638 1.19729,0.79819 1.59638,1.79593 0.46561,0.99774 0.46561,2.26154 0,2.72714 -2.26154,4.32352 -2.19502,1.59638 -5.98642,1.59638 -4.39004,0 -7.84886,-1.52986 -3.45882,-1.59638 -6.85113,-4.52308 l -4.92217,5.85339 q 4.1905,3.79141 9.11267,5.65385 4.92217,1.79592 10.30995,1.79592 3.65836,0 6.71809,-0.93122 3.05973,-0.93122 5.25475,-2.72714 2.19502,-1.79593 3.3923,-4.39005 1.26381,-2.59411 1.26381,-5.9199 0,-2.9267 -0.99774,-5.0552 -0.93122,-2.19503 -2.79367,-3.79141 -1.86244,-1.66289 -4.72262,-2.79366 -2.79366,-1.13077 -6.45203,-2.06199 -3.32579,-0.79819 -5.52081,-1.52986 -2.12851,-0.73168 -3.39231,-1.59638 -1.19728,-0.86471 -1.66289,-1.86244 -0.46561,-0.99774 -0.46561,-2.39457 z" id="path874"></path>
    </g>
  </g>
</svg>